<?xml version="1.0" encoding="utf-8"?>
<!-- Generator: Adobe Illustrator 15.1.0, SVG Export Plug-In . SVG Version: 6.00 Build 0)  -->
<!DOCTYPE svg PUBLIC "-//W3C//DTD SVG 1.1//EN" "http://www.w3.org/Graphics/SVG/1.1/DTD/svg11.dtd">
<svg version="1.1" id="Layer_1" xmlns="http://www.w3.org/2000/svg" xmlns:xlink="http://www.w3.org/1999/xlink" x="0px" y="0px"
	viewBox="210.5 0 1026 720" enable-background="new 210.5 0 1026 720" xml:space="preserve">
<g id="Layer_3">
	<rect x="69.729" y="-265.946" display="none" fill="#9BB8AD" width="1313.514" height="1401.081"/>
	<g>
		<path fill="#FFFFFF" d="M245.929,569.275h17.5c7.98,17.755,22.904,29.853,38.343,29.853c12.61,0,18.018-5.916,18.018-14.415
			c0-9.78-7.203-14.408-30.882-20.582c-28.568-7.729-41.178-17.502-41.178-37.316c0-20.079,16.729-36.55,42.208-36.55
			c13.383,0,24.704,4.891,31.14,13.9l3.088-13.9h17.241v40.924h-17.241c-8.75-16.215-18.015-26.513-32.94-26.513
			c-9.266,0-16.727,4.892-16.727,13.64c0,9.522,8.233,14.16,29.852,19.814c27.024,7.212,41.947,15.96,41.947,37.576
			c0,19.046-15.955,38.349-43.75,38.349c-16.214,0-28.566-6.949-36.289-16.22l-3.344,15.962h-16.986V569.275z"/>
		<path fill="#FFFFFF" d="M362.236,552.545c0-36.545,25.477-62.28,61.505-62.28c37.319,0,61.508,24.709,61.508,61.254
			c0,36.541-25.478,62.536-61.508,62.536C386.17,614.057,362.236,589.088,362.236,552.545z M452.308,552.034
			c0-32.69-10.807-46.323-29.598-46.323c-18.785,0-27.534,13.891-27.534,46.323c0,32.421,10.552,46.578,29.598,46.578
			C443.043,598.612,452.308,584.455,452.308,552.034z"/>
		<path fill="#FFFFFF" d="M662.023,511.114l24.446,76.176h1.033l22.652-76.176h-15.446v-18.787h50.695v19.042h-15.184
			l-33.717,101.396H666.4l-21.614-64.595l-24.962,64.595h-29.596l-33.208-101.397h-16.206v-19.041h64.59v18.787h-17.492
			l23.162,76.432h1.026l24.189-63.82l-4.11-12.61h-15.188v-18.786h64.338v18.786L662.023,511.114L662.023,511.114z"/>
		<path fill="#FFFFFF" d="M1036.397,461.443v32.17h38.602v17.756h-38.602v65.886c0,11.322,3.346,17.239,13.38,17.239
			c7.467,0,12.362-6.688,17.248-21.354l13.122,4.631c-6.182,25.473-19.56,36.286-39.122,36.286
			c-23.163,0-34.738-12.866-34.738-35.776v-66.913h-22.39v-17.755h22.905v-28.821L1036.397,461.443z"/>
		<path fill="#FFFFFF" d="M1121.823,554.867c1.026,29.079,13.124,40.917,34.487,40.917c14.155,0,24.444-6.182,30.879-21.362h15.444
			c-5.924,25.222-23.686,39.633-53.015,39.633c-37.576,0-59.706-25.735-59.706-60.738c0-36.027,25.473-63.053,60.222-63.053
			c37.575,0,54.559,30.109,53.275,64.602h-81.587V554.867z M1122.081,541.228h51.467c-1.542-23.161-8.749-35.772-24.958-35.772
			C1133.914,505.455,1124.141,514.974,1122.081,541.228z"/>
	</g>
	<g>
		<path fill="#FFFFFF" d="M244.559,665.901h14.98c12.629,0,21.35,8.671,21.35,19.974v0.111c0,11.308-8.721,20.091-21.35,20.091
			h-14.98V665.901z M251.619,672.327v27.325h7.918c8.441,0,13.948-5.688,13.948-13.551v-0.111c0-7.863-5.507-13.661-13.948-13.661
			h-7.918V672.327z"/>
		<path fill="#FFFFFF" d="M300.955,665.901h29.791v6.314h-22.732v10.441h20.145v6.314h-20.145v10.79h23.017v6.316h-30.076V665.901z"
			/>
		<path fill="#FFFFFF" d="M348.221,700.221l4.245-5.045c3.848,3.325,7.75,5.221,12.686,5.221c4.364,0,7.117-2.067,7.117-5.052
			v-0.111c0-2.872-1.604-4.421-9.07-6.147c-8.551-2.063-13.37-4.588-13.37-11.992v-0.117c0-6.887,5.737-11.647,13.717-11.647
			c5.854,0,10.503,1.777,14.575,5.044l-3.785,5.341c-3.616-2.695-7.234-4.134-10.909-4.134c-4.134,0-6.546,2.128-6.546,4.761v0.12
			c0,3.101,1.84,4.48,9.592,6.314c8.491,2.068,12.854,5.11,12.854,11.767v0.117c0,7.518-5.911,11.993-14.347,11.993
			C358.839,706.65,353.045,704.528,348.221,700.221z"/>
		<path fill="#FFFFFF" d="M399.564,665.901h7.061v40.176h-7.061V665.901z"/>
		<path fill="#FFFFFF" d="M427.073,686.1v-0.111c0-11.249,8.609-20.778,20.717-20.778c7.002,0,11.309,1.951,15.438,5.457
			l-4.476,5.335c-3.098-2.645-6.137-4.304-11.249-4.304c-7.403,0-13.028,6.485-13.028,14.178v0.112
			c0,8.267,5.452,14.347,13.662,14.347c3.783,0,7.226-1.2,9.694-3.039v-7.517h-10.267v-6.147h17.097v16.881
			c-3.958,3.385-9.634,6.255-16.755,6.255C435.339,706.768,427.073,697.809,427.073,686.1z"/>
		<path fill="#FFFFFF" d="M485.357,665.901h6.552l21.523,27.783v-27.783h6.942v40.176h-5.911L492.3,677.496v28.581h-6.942V665.901z"
			/>
		<path fill="#FFFFFF" d="M593.43,701.428c-3.445,3.212-7.46,5.223-12.283,5.223c-7.516,0-13.146-4.533-13.146-11.475v-0.119
			c0-5.165,3.051-8.9,8.558-11.25c-2.298-2.929-3.331-5.451-3.331-8.379v-0.116c0-5.396,4.362-10.102,11.541-10.102
			c6.372,0,10.668,4.303,10.668,9.697v0.117c0,5.285-3.5,8.438-8.84,10.448l6.887,6.999c1.561-2.295,2.984-4.938,4.308-7.747
			l5.34,2.809c-1.604,3.221-3.388,6.373-5.452,9.133l6.371,6.427l-5.283,3.792L593.43,701.428z M589.414,697.294l-8.951-9.125
			c-3.734,1.608-5.34,4.079-5.34,6.655v0.112c0,3.389,2.814,5.854,6.72,5.854C584.59,700.792,587.114,699.477,589.414,697.294z
			 M589.188,675.428v-0.116c0-2.693-1.896-4.532-4.544-4.532c-2.87,0-4.824,2.007-4.824,4.822v0.112c0,2.009,0.81,3.501,3.052,5.967
			C587.001,680.188,589.188,678.294,589.188,675.428z"/>
		<path fill="#FFFFFF" d="M651.508,665.901h7.056v40.176h-7.056V665.901z"/>
		<path fill="#FFFFFF" d="M680.794,665.901h7.056v33.749h21.12v6.427h-28.176V665.901z"/>
		<path fill="#FFFFFF" d="M727.826,665.901h7.054v33.749H756v6.427h-28.174V665.901z"/>
		<path fill="#FFFFFF" d="M773.074,689.028v-23.129h7.056v22.841c0,7.464,3.848,11.424,10.163,11.424
			c6.258,0,10.104-3.736,10.104-11.136v-23.129h7.058v22.785c0,11.997-6.776,18.019-17.272,18.019
			C779.735,706.704,773.074,700.684,773.074,689.028z"/>
		<path fill="#FFFFFF" d="M825.972,700.221l4.238-5.045c3.849,3.325,7.75,5.221,12.687,5.221c4.361,0,7.122-2.067,7.122-5.052
			v-0.111c0-2.872-1.603-4.421-9.075-6.147c-8.547-2.063-13.368-4.588-13.368-11.992v-0.117c0-6.887,5.742-11.647,13.718-11.647
			c5.854,0,10.508,1.777,14.581,5.044l-3.791,5.341c-3.615-2.695-7.236-4.134-10.904-4.134c-4.138,0-6.552,2.128-6.552,4.761v0.12
			c0,3.101,1.841,4.48,9.593,6.314c8.489,2.068,12.853,5.11,12.853,11.767v0.117c0,7.518-5.91,11.993-14.345,11.993
			C836.582,706.65,830.794,704.528,825.972,700.221z"/>
		<path fill="#FFFFFF" d="M885.921,672.438h-12.739v-6.536h32.605v6.536h-12.754v33.64h-7.112V672.438z"/>
		<path fill="#FFFFFF" d="M924.742,665.901h17.913c5.048,0,9.01,1.488,11.598,4.014c2.121,2.188,3.319,5.171,3.319,8.67v0.112
			c0,6.602-3.957,10.568-9.521,12.172l10.846,15.209h-8.378l-9.87-14.006h-8.838v14.006h-7.067v-40.177H924.742z M942.14,685.819
			c5.046,0,8.267-2.648,8.267-6.718v-0.114c0-4.307-3.105-6.66-8.322-6.66H931.81v13.492H942.14z"/>
		<path fill="#FFFFFF" d="M991.984,665.612h6.541l17.677,40.465h-7.46l-4.073-9.701H985.67l-4.128,9.701h-7.232L991.984,665.612z
			 M1002.079,690.12l-6.94-16.072l-6.887,16.072H1002.079z"/>
		<path fill="#FFFFFF" d="M1039.309,672.438h-12.741v-6.536h32.604v6.536h-12.751v33.64h-7.112V672.438z"/>
		<path fill="#FFFFFF" d="M1078.534,665.901h7.065v40.176h-7.065V665.901z"/>
		<path fill="#FFFFFF" d="M1106.048,686.1v-0.111c0-11.308,8.713-20.778,21.063-20.778c12.336,0,20.94,9.362,20.94,20.666v0.112
			c0,11.308-8.715,20.779-21.063,20.779C1114.649,706.768,1106.048,697.406,1106.048,686.1z M1140.65,686.1v-0.111
			c0-7.805-5.678-14.29-13.662-14.29c-7.977,0-13.541,6.373-13.541,14.178v0.112c0,7.807,5.676,14.232,13.664,14.232
			C1135.086,700.221,1140.65,693.906,1140.65,686.1z"/>
		<path fill="#FFFFFF" d="M1168.119,665.901h6.551l21.524,27.783v-27.783h6.943v40.176h-5.912l-22.165-28.581v28.581h-6.943v-40.176
			H1168.119z"/>
	</g>
	<g>
		<path fill="#FFFFFF" d="M876.104,529.64c0-23.676-11.834-39.117-33.712-39.117c-18.015,0-31.137,9.782-42.725,30.368v-86.726
			h-48.118v20.074h18.277v138.202H751.55v19.04h63.827v-19.04h-15.71v-45.556c0-21.103,13.903-34.229,27.542-34.229
			c5.402,0,9.783,1.55,12.872,4.895c4.116,4.115,6.175,10.808,6.175,19.302v55.589h-15.957v19.04h64.082v-19.04h-18.277V529.64z"/>
		<polygon fill="#FFFFFF" points="958.176,492.327 907.48,492.327 907.48,511.368 928.062,511.368 928.062,592.441 907.48,592.441 
			907.48,611.481 978.768,611.481 978.768,592.441 958.176,592.441 		"/>
		<path fill="#FFFFFF" d="M921.889,452.181c0,11.063,7.979,18.787,19.564,18.788c11.584,0,19.293-8.237,19.293-19.56
			s-7.708-18.788-19.293-18.788C929.867,432.621,921.889,440.857,921.889,452.181z"/>
		<path fill="#FFFFFF" d="M997.569,253.131l88.749-20.435L925.611,125.458l121.386-54.545L857.389,47.774L755.916,76.101
			l0.033-0.032l-0.081,0.045l-0.035,0.01l-0.024,0.023l-75.29,42.172l-22.438-9.612l-71.538,61.923l0,0l-0.027,0.044l-77.573-135.41
			l0.01,0.001l-4.478-7.8L453.699,7.571L285.827,163.294l-0.942,0.726l176.074-98.866l8.347-3.351l63.099,230.554l0,0l3.314,11.836
			l0.603-0.04l25.163,83.87l94.158-32.979l59.126,26.65L997.569,253.131z M895.613,105.35l2.601,1.826l-40.825-27.243
			L895.613,105.35z M705.104,125.157l-2.693,2.603l0.042-0.044L705.104,125.157z M558.759,302.676l0.172,0.067l-5.642,0.293
			L558.759,302.676z"/>
	</g>
</g>
<g id="Layer_3_1_">
	<rect x="69.729" y="-265.946" display="none" fill="#9BB8AD" width="1313.514" height="1401.081"/>
	<g>
		<path fill="#FFFFFF" d="M245.929,569.275h17.5c7.98,17.755,22.904,29.853,38.343,29.853c12.61,0,18.018-5.916,18.018-14.415
			c0-9.78-7.203-14.408-30.882-20.582c-28.568-7.729-41.178-17.502-41.178-37.316c0-20.079,16.729-36.55,42.208-36.55
			c13.383,0,24.704,4.891,31.14,13.9l3.088-13.9h17.241v40.924h-17.241c-8.75-16.215-18.015-26.513-32.94-26.513
			c-9.266,0-16.727,4.892-16.727,13.64c0,9.522,8.233,14.16,29.852,19.814c27.024,7.212,41.947,15.96,41.947,37.576
			c0,19.046-15.955,38.349-43.75,38.349c-16.214,0-28.566-6.949-36.289-16.22l-3.344,15.962h-16.986V569.275z"/>
		<path fill="#FFFFFF" d="M362.236,552.545c0-36.545,25.477-62.28,61.505-62.28c37.319,0,61.508,24.709,61.508,61.254
			c0,36.541-25.478,62.536-61.508,62.536C386.17,614.057,362.236,589.088,362.236,552.545z M452.308,552.034
			c0-32.69-10.807-46.323-29.598-46.323c-18.785,0-27.534,13.891-27.534,46.323c0,32.421,10.552,46.578,29.598,46.578
			C443.043,598.612,452.308,584.455,452.308,552.034z"/>
		<path fill="#FFFFFF" d="M662.023,511.114l24.446,76.176h1.033l22.652-76.176h-15.446v-18.787h50.695v19.042h-15.184
			l-33.717,101.396H666.4l-21.614-64.595l-24.962,64.595h-29.596l-33.208-101.397h-16.206v-19.041h64.59v18.787h-17.492
			l23.162,76.432h1.026l24.189-63.82l-4.11-12.61h-15.188v-18.786h64.338v18.786L662.023,511.114L662.023,511.114z"/>
		<path fill="#FFFFFF" d="M751.549,592.441h18.277V454.239h-18.277v-20.074h48.118v86.726c11.588-20.586,24.71-30.368,42.725-30.368
			c21.878,0,33.712,15.441,33.712,39.117v62.802h18.277v19.04h-64.082v-19.04h15.957v-55.589c0-8.494-2.059-15.187-6.175-19.302
			c-3.089-3.345-7.47-4.895-12.872-4.895c-13.639,0-27.542,13.127-27.542,34.229v45.556h15.71v19.04H751.55L751.549,592.441
			L751.549,592.441z"/>
		<path fill="#FFFFFF" d="M907.48,592.441h20.582v-81.073H907.48v-19.041h50.695v100.114h20.592v19.04H907.48V592.441z
			 M921.889,452.181c0-11.323,7.979-19.56,19.564-19.56c11.585,0,19.293,7.466,19.293,18.788s-7.709,19.56-19.293,19.56
			C929.867,470.968,921.889,463.244,921.889,452.181z"/>
		<path fill="#FFFFFF" d="M1036.397,461.443v32.17h38.602v17.756h-38.602v65.886c0,11.322,3.346,17.239,13.38,17.239
			c7.467,0,12.362-6.688,17.248-21.354l13.122,4.631c-6.182,25.473-19.56,36.286-39.122,36.286
			c-23.163,0-34.738-12.866-34.738-35.776v-66.913h-22.39v-17.755h22.905v-28.821L1036.397,461.443z"/>
		<path fill="#FFFFFF" d="M1121.823,554.867c1.026,29.079,13.124,40.917,34.487,40.917c14.155,0,24.444-6.182,30.879-21.362h15.444
			c-5.924,25.222-23.686,39.633-53.015,39.633c-37.576,0-59.706-25.735-59.706-60.738c0-36.027,25.473-63.053,60.222-63.053
			c37.575,0,54.559,30.109,53.275,64.602h-81.587V554.867z M1122.081,541.228h51.467c-1.542-23.161-8.749-35.772-24.958-35.772
			C1133.914,505.455,1124.141,514.974,1122.081,541.228z"/>
	</g>
	<g>
		<path fill="#FFFFFF" d="M244.559,665.901h14.98c12.629,0,21.35,8.671,21.35,19.974v0.111c0,11.308-8.721,20.091-21.35,20.091
			h-14.98V665.901z M251.619,672.327v27.325h7.918c8.441,0,13.948-5.688,13.948-13.551v-0.111c0-7.863-5.507-13.661-13.948-13.661
			h-7.918V672.327z"/>
		<path fill="#FFFFFF" d="M300.955,665.901h29.791v6.314h-22.732v10.441h20.145v6.314h-20.145v10.79h23.017v6.316h-30.076V665.901z"
			/>
		<path fill="#FFFFFF" d="M348.221,700.221l4.245-5.045c3.848,3.325,7.75,5.221,12.686,5.221c4.364,0,7.117-2.067,7.117-5.052
			v-0.111c0-2.872-1.604-4.421-9.07-6.147c-8.551-2.063-13.37-4.588-13.37-11.992v-0.117c0-6.887,5.737-11.647,13.717-11.647
			c5.854,0,10.503,1.777,14.575,5.044l-3.785,5.341c-3.616-2.695-7.234-4.134-10.909-4.134c-4.134,0-6.546,2.128-6.546,4.761v0.12
			c0,3.101,1.84,4.48,9.592,6.314c8.491,2.068,12.854,5.11,12.854,11.767v0.117c0,7.518-5.911,11.993-14.347,11.993
			C358.839,706.65,353.045,704.528,348.221,700.221z"/>
		<path fill="#FFFFFF" d="M399.564,665.901h7.061v40.176h-7.061V665.901z"/>
		<path fill="#FFFFFF" d="M427.073,686.1v-0.111c0-11.249,8.609-20.778,20.717-20.778c7.002,0,11.309,1.951,15.438,5.457
			l-4.476,5.335c-3.098-2.645-6.137-4.304-11.249-4.304c-7.403,0-13.028,6.485-13.028,14.178v0.112
			c0,8.267,5.452,14.347,13.662,14.347c3.783,0,7.226-1.2,9.694-3.039v-7.517h-10.267v-6.147h17.097v16.881
			c-3.958,3.385-9.634,6.255-16.755,6.255C435.339,706.768,427.073,697.809,427.073,686.1z"/>
		<path fill="#FFFFFF" d="M485.357,665.901h6.552l21.523,27.783v-27.783h6.942v40.176h-5.911L492.3,677.496v28.581h-6.942V665.901z"
			/>
		<path fill="#FFFFFF" d="M593.43,701.428c-3.445,3.212-7.46,5.223-12.283,5.223c-7.516,0-13.146-4.533-13.146-11.475v-0.119
			c0-5.165,3.051-8.9,8.558-11.25c-2.298-2.929-3.331-5.451-3.331-8.379v-0.116c0-5.396,4.362-10.102,11.541-10.102
			c6.372,0,10.668,4.303,10.668,9.697v0.117c0,5.285-3.5,8.438-8.84,10.448l6.887,6.999c1.561-2.295,2.984-4.938,4.308-7.747
			l5.34,2.809c-1.604,3.221-3.388,6.373-5.452,9.133l6.371,6.427l-5.283,3.792L593.43,701.428z M589.414,697.294l-8.951-9.125
			c-3.734,1.608-5.34,4.079-5.34,6.655v0.112c0,3.389,2.814,5.854,6.72,5.854C584.59,700.792,587.114,699.477,589.414,697.294z
			 M589.188,675.428v-0.116c0-2.693-1.896-4.532-4.544-4.532c-2.87,0-4.824,2.007-4.824,4.822v0.112c0,2.009,0.81,3.501,3.052,5.967
			C587.001,680.188,589.188,678.294,589.188,675.428z"/>
		<path fill="#FFFFFF" d="M651.508,665.901h7.056v40.176h-7.056V665.901z"/>
		<path fill="#FFFFFF" d="M680.794,665.901h7.056v33.749h21.12v6.427h-28.176V665.901z"/>
		<path fill="#FFFFFF" d="M727.826,665.901h7.054v33.749H756v6.427h-28.174V665.901z"/>
		<path fill="#FFFFFF" d="M773.074,689.028v-23.129h7.056v22.841c0,7.464,3.848,11.424,10.163,11.424
			c6.258,0,10.104-3.736,10.104-11.136v-23.129h7.058v22.785c0,11.997-6.776,18.019-17.272,18.019
			C779.735,706.704,773.074,700.684,773.074,689.028z"/>
		<path fill="#FFFFFF" d="M825.972,700.221l4.238-5.045c3.849,3.325,7.75,5.221,12.687,5.221c4.361,0,7.122-2.067,7.122-5.052
			v-0.111c0-2.872-1.603-4.421-9.075-6.147c-8.547-2.063-13.368-4.588-13.368-11.992v-0.117c0-6.887,5.742-11.647,13.718-11.647
			c5.854,0,10.508,1.777,14.581,5.044l-3.791,5.341c-3.615-2.695-7.236-4.134-10.904-4.134c-4.138,0-6.552,2.128-6.552,4.761v0.12
			c0,3.101,1.841,4.48,9.593,6.314c8.489,2.068,12.853,5.11,12.853,11.767v0.117c0,7.518-5.91,11.993-14.345,11.993
			C836.582,706.65,830.794,704.528,825.972,700.221z"/>
		<path fill="#FFFFFF" d="M885.921,672.438h-12.739v-6.536h32.605v6.536h-12.754v33.64h-7.112V672.438z"/>
		<path fill="#FFFFFF" d="M924.742,665.901h17.913c5.048,0,9.01,1.488,11.598,4.014c2.121,2.188,3.319,5.171,3.319,8.67v0.112
			c0,6.602-3.957,10.568-9.521,12.172l10.846,15.209h-8.378l-9.87-14.006h-8.838v14.006h-7.067v-40.177H924.742z M942.14,685.819
			c5.046,0,8.267-2.648,8.267-6.718v-0.114c0-4.307-3.105-6.66-8.322-6.66H931.81v13.492H942.14z"/>
		<path fill="#FFFFFF" d="M991.984,665.612h6.541l17.677,40.465h-7.46l-4.073-9.701H985.67l-4.128,9.701h-7.232L991.984,665.612z
			 M1002.079,690.12l-6.94-16.072l-6.887,16.072H1002.079z"/>
		<path fill="#FFFFFF" d="M1039.309,672.438h-12.741v-6.536h32.604v6.536h-12.751v33.64h-7.112V672.438z"/>
		<path fill="#FFFFFF" d="M1078.534,665.901h7.065v40.176h-7.065V665.901z"/>
		<path fill="#FFFFFF" d="M1106.048,686.1v-0.111c0-11.308,8.713-20.778,21.063-20.778c12.336,0,20.94,9.362,20.94,20.666v0.112
			c0,11.308-8.715,20.779-21.063,20.779C1114.649,706.768,1106.048,697.406,1106.048,686.1z M1140.65,686.1v-0.111
			c0-7.805-5.678-14.29-13.662-14.29c-7.977,0-13.541,6.373-13.541,14.178v0.112c0,7.807,5.676,14.232,13.664,14.232
			C1135.086,700.221,1140.65,693.906,1140.65,686.1z"/>
		<path fill="#FFFFFF" d="M1168.119,665.901h6.551l21.524,27.783v-27.783h6.943v40.176h-5.912l-22.165-28.581v28.581h-6.943v-40.176
			H1168.119z"/>
	</g>
	<g>
		<polygon fill="#E5E7E9" points="600.764,330.309 714.769,381.694 1037.486,234.984 971.679,235.573 		"/>
		<polygon fill="#F7F8F9" points="284.885,164.021 465.538,62.583 460.469,28.732 		"/>
		<polygon fill="#FFFFFF" points="453.699,7.571 460.794,30.362 504.475,27.465 		"/>
		<polygon fill="#FFFFFF" points="285.686,163.425 453.699,7.571 460.469,28.732 		"/>
		<polygon fill="#FFFFFF" points="504.475,27.465 460.469,28.732 532.404,292.357 600.955,195.88 		"/>
		<polygon fill="#DFE1E4" points="658.08,108.707 586.542,170.63 600.955,195.88 		"/>
		<polygon fill="#FFFFFF" points="532.404,292.357 693.206,133.253 658.08,108.707 		"/>
		<polygon fill="#FFFFFF" points="702.454,127.716 658.08,108.707 695.506,134.919 		"/>
		<polygon fill="#F7F8F9" points="755.949,76.069 702.454,127.716 680.424,118.372 		"/>
		<polygon fill="#FFFFFF" points="532.404,292.357 535.719,304.193 561.175,302.517 544.677,292.782 		"/>
		<polygon fill="#F7F8F9" points="561.484,388.023 677.548,347.372 679.621,326.612 641.575,335.1 563.29,302.517 536.252,303.921 
					"/>
		<polygon fill="#FFFFFF" points="1086.318,232.696 667.392,161.609 532.404,292.357 641.575,335.1 		"/>
		<polygon fill="#F7F7F7" points="857.389,79.933 1086.318,232.696 667.392,161.609 755.833,76.124 		"/>
		<polygon fill="#EEEFF1" points="857.389,47.774 812.914,78.418 755.833,76.124 		"/>
		<polygon fill="#EBEDEF" points="1046.997,70.912 925.35,125.575 900.324,108.657 		"/>
		<polygon fill="#E5E7E9" points="846.856,54.987 935.679,77.815 942.022,86.278 925.522,90.087 895.613,105.35 857.389,79.933 
			812.914,78.418 		"/>
		<polygon fill="#F8F9FC" points="900.324,108.657 1046.997,70.912 857.389,47.774 846.856,54.987 935.679,77.815 942.022,86.278 
			925.522,90.087 895.613,105.35 		"/>
		<polygon fill="#EEEFF1" points="857.389,47.774 812.914,78.418 755.833,76.124 		"/>
		<polygon fill="#EBEDEF" points="1046.997,70.912 925.35,125.575 900.324,108.657 		"/>
		<polygon fill="#E5E7E9" points="846.856,54.987 935.679,77.815 942.022,86.278 925.522,90.087 895.613,105.35 857.389,79.933 
			812.914,78.418 		"/>
		<polygon fill="#F8F9FC" points="900.324,108.657 1046.997,70.912 857.389,47.774 846.856,54.987 935.679,77.815 942.022,86.278 
			925.522,90.087 895.613,105.35 		"/>
		<polygon fill="#EDEEF0" points="532.404,292.357 599.855,193.958 586.542,170.63 526.067,268.946 		"/>
		<polygon fill="#E9ECED" points="686.565,129.047 533.673,290.666 695.64,134.521 		"/>
		<polygon fill="#DFE1E4" points="444.871,40.672 460.093,65.502 469.306,61.803 460.469,28.732 		"/>
		<polygon fill="#FFFFFF" points="460.898,28.858 508.952,35.266 504.475,27.465 		"/>
	</g>
</g>
</svg>
